<svg id="modaic_logo" xmlns="http://www.w3.org/2000/svg" width="103.905" height="40" viewBox="0 0 103.905 40">
<path id="Shape" d="M32.666,40a7.277,7.277,0,0,1-5.274-2.166,7.353,7.353,0,0,1-2.059-5.167V14.381a7.353,7.353,0,0,1,2.059-5.167A7.351,7.351,0,0,1,40,14.381V32.666a7.353,7.353,0,0,1-2.059,5.167A7.277,7.277,0,0,1,32.666,40Zm0-32.476a3.053,3.053,0,0,0-2.666,2,11.208,11.208,0,0,0-.953,4.857V32.666A11.208,11.208,0,0,0,30,37.524a3.053,3.053,0,0,0,2.666,2,3.053,3.053,0,0,0,2.667-2,11.21,11.21,0,0,0,.952-4.857V14.381a11.21,11.21,0,0,0-.952-4.857A3.053,3.053,0,0,0,32.666,7.524Zm-28.285,32H0v-.476H.005c1.258,0,1.981-.461,2.09-1.332V9.333C2.1,8.5,1.312,8,0,8V7.524H5.333l5.9,24.286L16.19,7.524h5.524V8H19.9V39.047h1.81v.475H14.381v-.476H16.19V9.715L10.1,39.523H9.333L2.476,11.047v28H4.381v.476ZM29.428,4.19a2.123,2.123,0,0,1-2.1-2.1,2.1,2.1,0,1,1,4.19,0A2.123,2.123,0,0,1,29.428,4.19Z" transform="translate(0)"/>
<circle id="Oval" cx="2.095" cy="2.095" r="2.095" transform="translate(33.714 0)"/>
<path id="Shape-2" data-name="Shape" d="M54.476,32.953a7.115,7.115,0,0,1-6.857-7.333V7.333A7.115,7.115,0,0,1,54.476,0a5.093,5.093,0,0,1,4.286,2.1c.527,0,1.143-.424,1.143-1.619h.476V7.333H59.9a8.12,8.12,0,0,0-1.524-4.893A4.53,4.53,0,0,0,54.857.476a3.053,3.053,0,0,0-2.666,2,11.208,11.208,0,0,0-.953,4.857V25.619a11.208,11.208,0,0,0,.953,4.857,3.053,3.053,0,0,0,2.666,2,4.464,4.464,0,0,0,3.56-1.964A8.2,8.2,0,0,0,59.9,25.619h.476v6.857H59.9a1.849,1.849,0,0,0-.431-1.331.971.971,0,0,0-.712-.288A5.229,5.229,0,0,1,54.476,32.953Zm-33.429-.475h-4.38V32c1.415,0,2.376-.642,2.571-1.714L25.619,0h.761l7.143,32h1.809v.475H27.9V32h1.81l-1.905-8.953H21.238L19.333,32h1.714v.476ZM24.477,8.1h0L21.334,22.666h6.381ZM43.9,32.477H36.571V32h1.9V.952h-1.9V.476H43.9V.952h-1.81V32H43.9v.475Zm-36.572,0H0V32H1.81V.952H0V.476H7.333A8.6,8.6,0,0,1,13.582,2.9a6.756,6.756,0,0,1,1.942,4.913V25.143a6.994,6.994,0,0,1-2.238,5.167A8.64,8.64,0,0,1,7.333,32.477ZM5.524.952V32H7.333a3.972,3.972,0,0,0,3.215-2,8.781,8.781,0,0,0,1.357-4.856V7.809a8.787,8.787,0,0,0-1.357-4.857,3.973,3.973,0,0,0-3.215-2Z" transform="translate(43.524 7.048)"/>
</svg>
